<?xml version="1.0" standalone="no"?>
<!DOCTYPE svg PUBLIC "-//W3C//DTD SVG 20010904//EN"
 "http://www.w3.org/TR/2001/REC-SVG-20010904/DTD/svg10.dtd">
<svg version="1.0" xmlns="http://www.w3.org/2000/svg"
 width="512.000000pt" height="512.000000pt" viewBox="0 0 512.000000 512.000000"
 preserveAspectRatio="xMidYMid meet">

<g transform="translate(0.000000,512.000000) scale(0.100000,-0.100000)"
fill="#7367F0" stroke="none">
<path d="M2030 4971 l0 -150 -242 -3 -243 -3 -68 -32 c-145 -69 -239 -201
-258 -361 -6 -45 -8 -901 -7 -2067 3 -1814 5 -1994 20 -2036 59 -166 185 -278
347 -309 73 -14 1889 -14 1962 0 162 31 288 143 347 309 15 42 17 222 20 2036
1 1166 -1 2022 -7 2067 -19 160 -113 292 -258 361 l-68 32 -252 3 -253 3 0
150 0 149 -520 0 -520 0 0 -149z m1504 -464 c21 -12 47 -38 57 -57 18 -33 19
-106 19 -2035 0 -1884 -1 -2002 -18 -2035 -9 -19 -32 -45 -51 -57 l-34 -23
-947 0 -947 0 -34 23 c-19 12 -42 38 -51 57 -17 33 -18 151 -18 2035 0 1929 1
2002 19 2035 10 19 36 45 57 57 l39 23 935 0 935 0 39 -23z"/>
<path d="M2223 3123 l-250 -698 248 -3 c137 -1 249 -6 249 -10 0 -4 -52 -161
-116 -349 l-117 -343 -205 -2 -205 -3 292 -350 c161 -192 297 -349 303 -347 5
1 199 159 429 350 l419 347 -200 3 c-110 1 -200 3 -200 5 0 1 86 259 190 572
105 313 190 571 190 572 0 2 -119 3 -265 3 -146 0 -265 3 -265 6 0 4 72 214
160 468 88 254 160 465 160 469 0 4 -127 7 -283 7 l-283 0 -251 -697z"/>
</g>
</svg>
