<?xml version="1.0" standalone="no"?>
<!DOCTYPE svg PUBLIC "-//W3C//DTD SVG 20010904//EN"
 "http://www.w3.org/TR/2001/REC-SVG-20010904/DTD/svg10.dtd">
<svg version="1.0" xmlns="http://www.w3.org/2000/svg"
 width="512.000000pt" height="512.000000pt" viewBox="0 0 512.000000 512.000000"
 preserveAspectRatio="xMidYMid meet">

<g transform="translate(0.000000,512.000000) scale(0.100000,-0.100000)"
fill="#7367F0" stroke="none">
<path d="M1235 5103 c-135 -49 -205 -156 -205 -314 l0 -68 -402 -3 c-398 -3
-404 -3 -450 -26 -60 -30 -120 -90 -150 -150 l-23 -47 0 -1935 0 -1935 23 -47
c30 -60 90 -120 150 -150 l47 -23 737 -3 737 -2 33 29 c27 24 33 36 33 71 0
35 -6 47 -33 71 l-32 29 -716 0 -716 0 -34 34 -34 34 0 1892 0 1892 34 34 34
34 380 0 380 0 4 -87 c7 -141 58 -227 166 -280 47 -23 70 -28 132 -28 177 0
288 115 298 308 l4 87 808 0 808 0 4 -87 c5 -99 26 -157 77 -216 82 -92 237
-121 353 -64 108 53 159 139 166 280 l4 87 380 0 380 0 34 -34 34 -34 0 -266
0 -266 -1900 0 c-2068 0 -1942 4 -1968 -55 -15 -33 -15 -57 0 -90 26 -59 -100
-55 1968 -55 l1900 0 0 -989 0 -990 -92 44 c-51 24 -114 49 -140 56 l-48 11 0
754 c0 562 -3 760 -12 779 -26 58 98 55 -1948 55 -2046 0 -1922 3 -1948 -55
-17 -38 -17 -2412 0 -2450 26 -58 -50 -55 1407 -55 l1340 0 6 -37 c7 -46 45
-213 52 -230 4 -10 -85 -13 -422 -13 -454 0 -469 -1 -495 -49 -13 -25 -13 -77
0 -102 26 -48 37 -49 546 -49 l476 0 90 -95 c134 -142 276 -227 458 -276 123
-33 339 -33 460 0 274 74 494 255 615 506 69 142 89 233 89 405 1 120 -3 160
-22 230 -29 109 -98 250 -162 334 l-50 65 -2 1463 -3 1463 -23 47 c-31 62 -87
119 -148 149 l-49 24 -401 3 -402 3 -4 87 c-7 140 -58 226 -166 279 -47 23
-70 28 -132 28 -177 0 -288 -115 -298 -307 l-4 -88 -808 0 -808 0 -4 88 c-5
98 -26 156 -77 215 -71 81 -213 117 -316 80z m144 -197 c47 -25 51 -49 51
-287 0 -171 -3 -226 -14 -248 -35 -66 -137 -66 -172 0 -20 39 -20 462 0 498
26 47 84 63 135 37z m2220 0 c47 -25 51 -49 51 -287 0 -171 -3 -226 -14 -248
-35 -66 -137 -66 -172 0 -20 39 -20 462 0 498 26 47 84 63 135 37z m-2379
-1961 l0 -295 -270 0 -270 0 0 295 0 295 270 0 270 0 0 -295z m750 0 l0 -295
-275 0 -275 0 0 295 0 295 275 0 275 0 0 -295z m740 0 l0 -295 -270 0 -270 0
0 295 0 295 270 0 270 0 0 -295z m750 0 l0 -295 -275 0 -275 0 0 295 0 295
275 0 275 0 0 -295z m740 0 l0 -295 -270 0 -270 0 0 295 0 295 270 0 270 0 0
-295z m-2980 -785 l0 -290 -270 0 -270 0 0 290 0 290 270 0 270 0 0 -290z
m750 0 l0 -290 -275 0 -275 0 0 290 0 290 275 0 275 0 0 -290z m740 0 l0 -290
-270 0 -270 0 0 290 0 290 270 0 270 0 0 -290z m750 0 l0 -290 -275 0 -275 0
0 290 0 290 275 0 275 0 0 -290z m740 6 l0 -283 -82 -6 c-46 -4 -167 -7 -270
-7 l-188 0 0 290 0 290 270 0 270 0 0 -284z m185 -516 c192 -60 359 -194 442
-355 69 -134 88 -210 88 -355 0 -145 -19 -222 -88 -355 -58 -111 -181 -234
-292 -292 -133 -69 -210 -88 -355 -88 -103 0 -138 4 -200 24 -256 79 -431 254
-510 506 -87 281 26 619 268 797 73 54 201 113 287 132 98 22 267 15 360 -14z
m-3165 -275 l0 -295 -270 0 -270 0 0 295 0 295 270 0 270 0 0 -295z m750 0 l0
-295 -275 0 -275 0 0 295 0 295 275 0 275 0 0 -295z m740 0 l0 -295 -270 0
-270 0 0 295 0 295 270 0 270 0 0 -295z m750 232 c0 -58 -3 -67 -41 -117 -22
-30 -60 -95 -84 -145 -38 -79 -53 -124 -79 -237 l-6 -28 -170 0 -170 0 0 295
0 295 275 0 275 0 0 -63z"/>
<path d="M4329 1043 l-169 -167 -73 71 c-106 104 -141 116 -199 64 -27 -24
-33 -36 -33 -70 0 -40 6 -47 133 -173 185 -186 153 -192 427 82 119 118 218
225 221 238 16 60 -34 122 -99 122 -38 0 -47 -7 -208 -167z"/>
<path d="M451 3906 c-87 -48 -50 -186 49 -186 51 0 100 49 100 99 0 75 -83
124 -149 87z"/>
<path d="M2018 584 c-34 -18 -48 -43 -48 -84 0 -42 15 -67 50 -85 43 -22 76
-18 112 14 27 24 33 36 33 71 0 35 -6 47 -33 71 -36 32 -72 36 -114 13z"/>
</g>
</svg>
