<?xml version="1.0" standalone="no"?>
<!DOCTYPE svg PUBLIC "-//W3C//DTD SVG 20010904//EN"
 "http://www.w3.org/TR/2001/REC-SVG-20010904/DTD/svg10.dtd">
<svg version="1.0" xmlns="http://www.w3.org/2000/svg"
 width="24.000000pt" height="24.000000pt" viewBox="0 0 24.000000 24.000000"
 preserveAspectRatio="xMidYMid meet">

<g transform="translate(0.000000,24.000000) scale(0.100000,-0.100000)"
fill="#7367F0" stroke="none">
<path d="M63 213 c-67 -8 -30 -23 57 -23 50 0 90 4 90 9 0 8 -80 23 -104 19
-6 0 -26 -3 -43 -5z"/>
<path d="M51 113 c4 -32 8 -66 8 -75 1 -15 11 -18 61 -18 50 0 60 3 61 18 0 9
4 43 8 75 l7 57 -76 0 -76 0 7 -57z"/>
</g>
</svg>
