<?xml version="1.0" standalone="no"?>
<!DOCTYPE svg PUBLIC "-//W3C//DTD SVG 20010904//EN"
 "http://www.w3.org/TR/2001/REC-SVG-20010904/DTD/svg10.dtd">
<svg version="1.0" xmlns="http://www.w3.org/2000/svg"
 width="512.000000pt" height="512.000000pt" viewBox="0 0 512.000000 512.000000"
 preserveAspectRatio="xMidYMid meet">

<g transform="translate(0.000000,512.000000) scale(0.100000,-0.100000)"
fill="#7367F0" stroke="none">
<path d="M152 4734 c-56 -28 -90 -63 -125 -128 l-22 -41 -3 -1605 c-3 -1779
-7 -1666 64 -1748 20 -24 59 -55 88 -70 l51 -27 873 -3 874 -3 -4 -148 c-3
-144 -4 -149 -33 -196 -17 -27 -54 -67 -84 -90 -29 -22 -59 -52 -67 -65 -18
-34 -18 -144 1 -184 33 -69 -7 -66 798 -66 719 0 724 0 751 21 39 31 56 71 56
134 0 71 -19 116 -61 145 -62 42 -91 74 -115 125 -21 45 -24 64 -24 188 l0
137 300 0 c317 0 339 3 359 47 16 34 14 47 -10 77 l-20 26 -1782 2 c-1700 3
-1783 4 -1809 21 -50 34 -58 69 -58 256 l0 171 2410 0 2410 0 0 -171 c0 -192
-9 -227 -64 -257 -27 -15 -80 -18 -443 -22 -371 -4 -414 -7 -429 -22 -27 -27
-22 -77 10 -105 l28 -24 422 3 421 3 51 27 c29 15 68 46 88 70 71 82 67 -31
64 1748 l-3 1605 -22 41 c-35 65 -69 100 -125 128 l-52 26 -1809 0 c-1160 0
-1815 -4 -1827 -10 -10 -5 -23 -24 -29 -41 -12 -33 -2 -63 28 -86 12 -10 385
-12 1668 -13 l1653 0 17 -27 c17 -25 18 -69 21 -549 l3 -523 -45 25 -44 25
-304 -3 c-299 -3 -303 -3 -336 -26 -18 -13 -41 -41 -52 -62 -19 -36 -20 -60
-20 -324 0 -177 4 -295 11 -313 15 -40 48 -73 94 -94 36 -17 69 -19 313 -19
285 0 317 4 364 47 17 15 18 11 18 -98 l0 -114 -375 3 -375 2 -25 -24 c-33
-33 -33 -79 0 -112 l25 -24 375 2 375 3 0 -75 0 -75 -357 3 c-197 2 -368 0
-381 -3 -61 -15 -83 -92 -39 -133 23 -22 27 -22 400 -22 l377 0 0 -115 0 -115
-1565 0 -1565 0 0 204 0 205 -26 20 c-35 28 -67 26 -101 -3 l-28 -24 -3 -201
-4 -201 -374 0 -374 0 2 768 3 767 370 0 370 0 5 -433 5 -434 28 -24 c34 -29
66 -31 101 -3 l26 20 0 450 c0 428 -1 452 -20 489 -11 21 -34 49 -52 62 l-33
23 -420 3 c-420 2 -420 2 -459 -20 -25 -14 -48 -40 -63 -67 l-23 -44 0 -779 0
-778 -145 0 -145 0 2 1327 c3 1285 4 1329 22 1356 38 57 41 57 459 57 374 0
385 1 411 21 34 27 36 77 3 107 -23 22 -26 22 -433 22 l-410 0 -52 -26z m2858
-3738 c0 -62 5 -137 10 -166 20 -107 85 -213 161 -266 81 -55 98 -54 -621 -54
-485 0 -660 3 -660 11 0 7 29 38 65 71 109 100 144 203 145 426 l0 92 450 0
450 0 0 -114z"/>
<path d="M679 4340 c-26 -26 -30 -36 -25 -63 10 -53 37 -67 127 -67 l79 0 0
-140 0 -140 -49 0 -49 0 -4 57 c-4 46 -10 61 -32 80 -34 28 -65 29 -100 2 -24
-19 -26 -26 -26 -95 0 -82 11 -113 57 -156 39 -37 73 -48 154 -48 79 0 122 15
161 56 44 47 48 73 48 289 0 264 11 249 -174 253 l-136 4 -31 -32z"/>
<path d="M1215 4356 c-52 -20 -101 -73 -115 -127 -7 -26 -10 -97 -8 -183 4
-164 17 -202 81 -244 37 -25 49 -27 138 -27 93 0 99 1 135 30 67 55 74 79 74
259 0 186 -13 228 -82 273 -48 33 -160 42 -223 19z m140 -286 l0 -135 -50 0
-50 0 -3 124 c-3 143 1 153 62 149 l41 -3 0 -135z"/>
<path d="M1633 4360 c-40 -17 -43 -39 -43 -298 0 -311 -10 -292 164 -292 134
0 175 14 223 76 38 50 45 147 14 199 -16 28 -18 41 -11 61 20 52 12 127 -19
175 -41 65 -83 82 -206 86 -55 2 -110 -1 -122 -7z m192 -180 c0 -22 -5 -25
-37 -28 -36 -3 -38 -2 -38 28 0 30 2 31 38 28 32 -3 37 -6 37 -28z m20 -220
c0 -23 -4 -25 -47 -28 -48 -3 -48 -3 -48 28 0 31 0 31 48 28 43 -3 47 -5 47
-28z"/>
<path d="M2350 4363 c-8 -3 -23 -12 -32 -21 -16 -14 -18 -40 -18 -272 0 -323
-14 -300 182 -300 152 0 173 7 184 67 5 27 1 37 -24 63 -29 28 -35 30 -105 30
l-75 0 -4 196 -3 196 -28 24 c-28 24 -47 28 -77 17z"/>
<path d="M2773 4360 c-40 -16 -43 -38 -43 -298 0 -247 0 -249 23 -270 48 -46
119 -19 132 50 3 18 5 134 3 256 l-3 224 -28 24 c-30 25 -48 28 -84 14z"/>
<path d="M3096 4355 c-114 -40 -160 -182 -93 -284 33 -49 97 -81 164 -81 58 0
85 -19 63 -45 -9 -11 -35 -15 -102 -15 -93 0 -140 -14 -152 -45 -12 -33 -5
-66 19 -90 23 -24 30 -25 140 -25 133 0 165 10 212 63 59 67 66 155 18 228
-35 54 -85 80 -161 87 -69 5 -87 19 -64 47 9 11 36 15 110 15 111 0 135 11
146 67 5 27 1 37 -24 63 -30 30 -32 30 -134 30 -61 -1 -119 -6 -142 -15z"/>
<path d="M3493 4360 c-47 -19 -58 -92 -20 -128 16 -15 36 -22 65 -22 l42 0 0
-195 c0 -195 0 -196 25 -220 15 -16 36 -25 55 -25 19 0 40 9 55 25 25 24 25
25 25 220 l0 195 43 0 c76 0 114 74 68 131 -19 23 -24 24 -178 26 -87 1 -168
-2 -180 -7z"/>
<path d="M4321 4205 l-87 -85 -28 29 c-56 59 -116 61 -151 7 -27 -41 -12 -75
70 -156 110 -109 113 -108 271 51 111 113 124 129 124 161 0 45 -34 78 -79 78
-29 0 -47 -13 -120 -85z"/>
<path d="M1815 3541 c-40 -24 -61 -49 -80 -94 -12 -30 -15 -86 -15 -309 0
-256 1 -274 21 -316 13 -26 38 -54 62 -70 l40 -27 266 -3 c314 -4 340 -1 387
40 69 61 69 62 69 373 0 154 -3 292 -7 307 -11 38 -57 88 -95 104 -25 11 -100
14 -325 14 -268 0 -296 -2 -323 -19z"/>
<path d="M2863 3535 c-27 -16 -49 -40 -62 -68 -20 -41 -21 -60 -21 -320 0
-227 3 -284 15 -314 21 -50 42 -72 90 -94 36 -17 69 -19 315 -19 246 0 279 2
315 19 46 21 79 54 94 94 7 18 11 136 11 313 0 264 -1 288 -20 324 -11 21 -34
49 -52 62 -33 23 -36 23 -338 26 l-305 2 -42 -25z m602 -147 c3 -13 4 -131 3
-263 l-3 -240 -262 -3 -263 -2 0 258 c0 142 3 262 7 265 3 4 120 7 259 7 l254
0 5 -22z"/>
<path d="M1749 2541 c-18 -14 -24 -29 -24 -61 0 -32 6 -47 24 -61 22 -18 45
-19 391 -19 356 0 368 1 394 21 37 29 37 89 0 118 -26 20 -38 21 -394 21 -346
0 -369 -1 -391 -19z"/>
<path d="M2805 2535 c-16 -15 -25 -36 -25 -55 0 -19 9 -40 25 -55 l24 -25 369
0 c358 0 370 1 396 21 20 16 26 29 26 59 0 30 -6 43 -26 59 -26 20 -38 21
-396 21 l-369 0 -24 -25z"/>
<path d="M1774 2250 c-28 -11 -54 -48 -54 -78 0 -12 11 -34 25 -47 l24 -25
376 0 c362 0 376 1 395 20 30 30 30 83 -1 115 -19 19 -34 20 -382 22 -199 1
-372 -2 -383 -7z"/>
<path d="M3080 2247 c-32 -16 -52 -59 -44 -92 3 -14 33 -46 69 -75 81 -64 108
-66 182 -8 89 68 103 104 60 154 -30 34 -76 36 -117 5 -30 -22 -30 -22 -57 -2
-40 28 -64 32 -93 18z"/>
</g>
</svg>
