<svg width="31" height="30" viewBox="0 0 31 30" fill="none" xmlns="http://www.w3.org/2000/svg">
<path d="M2 0C1.17156 0 0.5 0.671576 0.5 1.5V13.5C0.5 14.3284 1.17156 15 2 15C1.17156 15 0.5 15.6716 0.5 16.5V28.5C0.5 29.3284 1.17156 30 2 30H14C14.8284 30 15.5 29.3284 15.5 28.5V16.5C15.5 23.9559 21.5442 30 29 30C29.8284 30 30.5 29.3284 30.5 28.5V16.5C30.5 15.6716 29.8284 15 29 15H17C24.4558 15 30.5 8.95584 30.5 1.5C30.5 0.671576 29.8284 0 29 0H17C16.1716 0 15.5 0.671576 15.5 1.5C15.5 0.671576 14.8284 0 14 0H2Z" fill="url(#paint0_linear_3436_6132)"/>
<defs>
<linearGradient id="paint0_linear_3436_6132" x1="0.5" y1="30" x2="30.5" y2="0" gradientUnits="userSpaceOnUse">
<stop stop-color="#2423A0"/>
<stop offset="1" stop-color="#BAA9FF"/>
</linearGradient>
</defs>
</svg>
